<?xml version="1.0" encoding="UTF-8"?>
<svg id="Capa_1" data-name="Capa 1" xmlns="http://www.w3.org/2000/svg" viewBox="0 0 799.74 901.74">
  <defs>
    <style>
      .cls-1 {
        fill: #19d4d8;
      }

      .cls-2 {
        fill: #ff0;
      }

      .cls-3 {
        fill: #2ee550;
      }
    </style>
  </defs>
  <path class="cls-1" d="M799.87,273.44v213.86l-114.73-140.01c-16.83-20.53-48.06-21.05-65.55-1.08l-216.41,247-80.77-68.41c-15.62-13.22-38.39-13.6-54.44-.9l-228.88,181.22c-10.08,7.98-16.05,20.04-16.29,32.89C8.06,704.44-.13,667.33-.13,628.3v-354.86C-.13,122.63,122.13.37,272.94.37h253.86c150.81,0,273.07,122.26,273.07,273.07Z"/>
  <circle class="cls-2" cx="212.87" cy="315.37" r="85"/>
  <path class="cls-3" d="M799.87,487.3v141c0,140.31-105.83,255.91-242.01,271.32-10.2,1.16-20.56,1.75-31.06,1.75h-253.86c-111.79,0-207.89-67.17-250.14-163.36.24-12.85,6.21-24.91,16.29-32.89l228.88-181.22c16.05-12.7,38.82-12.32,54.44.9l80.77,68.41,216.41-247c17.49-19.97,48.72-19.45,65.55,1.08l114.73,140.01Z"/>
</svg>